<svg class="svg-icon" style="width: 1em; height: 1em;vertical-align: middle;fill: currentColor;overflow: hidden;" viewBox="0 0 1024 1024" version="1.1" xmlns="http://www.w3.org/2000/svg"><path d="M512 0C230.4 0 0 230.4 0 512s230.4 512 512 512 512-230.4 512-512S796.16 0 512 0z" fill="#1ED75F" /><path d="M747.52 739.84c-10.24 15.36-28.16 20.48-43.52 10.24-120.32-74.24-271.36-89.6-450.56-48.64-17.92 5.12-33.28-7.68-38.4-23.04-5.12-17.92 7.68-33.28 23.04-38.4 194.56-43.52 363.52-25.6 496.64 56.32 17.92 7.68 20.48 28.16 12.8 43.52z m61.44-140.8c-12.8 17.92-35.84 25.6-53.76 12.8-138.24-84.48-348.16-110.08-509.44-58.88-20.48 5.12-43.52-5.12-48.64-25.6-5.12-20.48 5.12-43.52 25.6-48.64 186.88-56.32 417.28-28.16 576 69.12 15.36 7.68 23.04 33.28 10.24 51.2z m5.12-143.36c-163.84-97.28-437.76-107.52-593.92-58.88-25.6 7.68-51.2-7.68-58.88-30.72-7.68-25.6 7.68-51.2 30.72-58.88 181.76-53.76 481.28-43.52 670.72 69.12 23.04 12.8 30.72 43.52 17.92 66.56-12.8 17.92-43.52 25.6-66.56 12.8z" fill="#191515" /></svg>